<?xml version="1.0" ?><!DOCTYPE svg  PUBLIC '-//W3C//DTD SVG 1.1//EN'  'http://www.w3.org/Graphics/SVG/1.1/DTD/svg11.dtd'><svg enable-background="new 0 0 24 24" height="24px" id="Layer_1" version="1.1" viewBox="0 0 24 24" width="24px" xml:space="preserve" xmlns="http://www.w3.org/2000/svg" xmlns:xlink="http://www.w3.org/1999/xlink"><g><g><path d="M6.7,6.3C5.2,6.3,3.9,5,3.9,3.4c0-1.6,1.2-2.9,2.7-2.9c1.5,0,2.7,1.3,2.7,2.9C9.4,5,8.2,6.3,6.7,6.3z M6.7,1.5    c-1,0-1.7,0.8-1.7,1.9c0,1,0.8,1.9,1.7,1.9c1,0,1.7-0.8,1.7-1.9C8.4,2.3,7.7,1.5,6.7,1.5z"/></g><g><path d="M17.4,6.3c-1.5,0-2.7-1.3-2.7-2.9c0-1.6,1.2-2.9,2.7-2.9c1.5,0,2.7,1.3,2.7,2.9C20.1,5,18.9,6.3,17.4,6.3z M17.4,1.5    c-1,0-1.7,0.8-1.7,1.9c0,1,0.8,1.9,1.7,1.9c1,0,1.7-0.8,1.7-1.9C19.1,2.3,18.4,1.5,17.4,1.5z"/></g><g><path d="M17,23.5L17,23.5c-0.8,0-1.3-0.1-1.7-0.2c-0.2-0.1-0.3-0.2-0.3-0.4c0-0.1-0.1-1.5,0.1-7.9c-0.7,0.3-1.8,0.6-3.1,0.6    c-1.1,0-2.1-0.2-3.1-0.6c0,1.4,0.1,4.5,0,7.9c0,0.2-0.2,0.4-0.4,0.5c-0.1,0-1.3,0.2-2.6,0.2c-0.6,0-1.2-0.1-1.5-0.2    C4.1,23.2,4,23,3.9,22.8c0-0.1-0.2-8.2,0-14.8c0-0.2,0.1-0.4,0.3-0.5c0.2-0.1,0.4,0,0.5,0.1c0,0,3.3,3.7,7.5,3.7    c2.5,0,4.8-1.2,7-3.7c0.1-0.2,0.4-0.2,0.6-0.1c0.2,0.1,0.3,0.3,0.3,0.5c0,0.1,0,9.4,0,14.8c0,0.3-0.2,0.5-0.4,0.5    C19.6,23.3,18.2,23.5,17,23.5z M16,22.4c0.2,0,0.5,0.1,1,0.1c0.8,0,1.6-0.1,2.1-0.1c0-4.2,0-10.4,0-13.1c-2.1,2.1-4.4,3.1-6.8,3.1    c-3.4,0-6.1-2-7.4-3.2c-0.1,5.4,0,11.6,0,13.2c0.8,0.1,2.2,0,2.9-0.1c0.1-4.4,0-8.1,0-8.2c0-0.2,0.1-0.3,0.2-0.4    c0.1-0.1,0.3-0.1,0.5,0c1.1,0.6,2.2,0.8,3.4,0.8c2,0,3.3-0.8,3.4-0.8c0.2-0.1,0.4-0.1,0.5,0c0.2,0.1,0.3,0.3,0.2,0.4    C16,19.5,16,21.7,16,22.4z"/></g></g></svg>