<?xml version="1.0" ?><svg id="Layer_1" style="enable-background:new 0 0 512 512;" version="1.1" viewBox="0 0 512 512" xml:space="preserve" xmlns="http://www.w3.org/2000/svg" xmlns:xlink="http://www.w3.org/1999/xlink"><style type="text/css">
	.st0{fill:#DA4453;}
	.st1{fill:#FFFFFF;}
</style><circle class="st0" cx="256" cy="256" r="250"/><g id="XMLID_91_"><path class="st1" d="M303.4,314.3c0-0.2,0-0.3,0-0.5c0-22.3-21.2-40.5-47.4-40.5s-47.4,18.1-47.4,40.5   c0,0.2,0,0.3,0,0.5H303.4z" id="XMLID_1232_"/><path class="st1" d="M256,381c-68.9,0-125-56.1-125-125s56.1-125,125-125s125,56.1,125,125S324.9,381,256,381z M256,143.1   c-62.3,0-112.9,50.6-112.9,112.9S193.7,368.9,256,368.9S368.9,318.3,368.9,256S318.3,143.1,256,143.1z"/><path class="st1" d="M322.7,216.3c0,10.4-8.4,18.9-18.9,18.9c-10.5,0-18.9-8.4-18.9-18.9" id="XMLID_66_"/><path class="st1" d="M219.5,216.3c0,10.4-8.4,18.9-18.9,18.9s-18.9-8.4-18.9-18.9" id="XMLID_65_"/></g></svg>