<?xml version="1.0" ?><!DOCTYPE svg  PUBLIC '-//W3C//DTD SVG 1.1//EN'  'http://www.w3.org/Graphics/SVG/1.1/DTD/svg11.dtd'><svg enable-background="new 0 0 48 48" height="48px" id="Layer_1" version="1.1" viewBox="0 0 48 48" width="48px" xml:space="preserve" xmlns="http://www.w3.org/2000/svg" xmlns:xlink="http://www.w3.org/1999/xlink"><g><path d="M24,0C10.745,0,0,10.745,0,24c0,13.253,10.745,24,24,24s24-10.746,24-24C48,10.745,37.255,0,24,0z    M24.152,44.254c-11.137,0-20.165-9.027-20.165-20.164c0-11.137,9.028-20.165,20.165-20.165c11.136,0,20.164,9.028,20.164,20.165   C44.316,35.227,35.288,44.254,24.152,44.254z" fill="#231F20"/><path d="M30.043,14.024c-2.186,0-4.084,1.17-5.146,2.908c-0.014,0.018-0.022,0.02-0.038,0.041   c-0.479,0.688-1.1,0-1.1,0h-0.001c-0.278-0.355-0.594-0.744-0.814-0.974c-0.021-0.021-0.037-0.023-0.056-0.039   c-1.149-1.305-2.817-2.14-4.693-2.14c-2.827,0-5.217,1.868-6.005,4.438c-0.179,0.57-0.276,1.179-0.276,1.809   c0,0.006,0.001,0.011,0.001,0.016c0,0.007-0.001,0.014-0.001,0.02c0,1.142,0.31,2.209,0.842,3.131   c0.036,0.084,0.082,0.168,0.119,0.252c0.226,0.44,0.803,1.426,1.973,2.619c1.705,1.756,4.443,4.52,5.521,5.283   c1.237,0.875,2.582,1.799,4.006,2.793c1.692-0.99,3.189-2.086,4.488-3.164c5.102-4.629,6.404-7.775,6.565-8.205   c0.007-0.018,0.015-0.038,0.021-0.056c0.3-0.602,0.504-1.259,0.588-1.954c0.003-0.012,0.005-0.022,0.005-0.022s-0.001,0-0.002,0   c0.028-0.233,0.046-0.47,0.046-0.712C36.086,16.73,33.381,14.024,30.043,14.024z M32.707,21.841c0,0-2.613,5.417-8.332,9.135   c0,0-2.021-1.277-4.287-3.453c-0.005-0.004-0.009-0.006-0.014-0.01c-2.31-2.016-4.559-4.726-4.559-4.726l0.014-0.006   c-0.506-0.631-0.821-1.422-0.821-2.293c0-2.037,1.651-3.688,3.688-3.688c1.06,0,2.007,0.452,2.68,1.167l0.003-0.007l2.455,2.297   c0,0,0.837,0.83,1.816,0c0.015-0.012,0.026-0.02,0.04-0.03c0.924-0.807,1.847-1.532,2.472-2.003l0.287-0.242   c0.018-0.015,0.035-0.03,0.054-0.045l0.045-0.037l0.004,0.006c0.121-0.094,0.25-0.178,0.384-0.254h0.001   c0.429-0.241,0.919-0.384,1.447-0.384c1.68,0,3.042,1.362,3.042,3.042c0,0.561-0.162,1.078-0.427,1.529   C32.7,21.84,32.707,21.841,32.707,21.841z" fill="#231F20"/></g></svg>