<?xml version="1.0" ?><!DOCTYPE svg  PUBLIC '-//W3C//DTD SVG 1.1//EN'  'http://www.w3.org/Graphics/SVG/1.1/DTD/svg11.dtd'><svg enable-background="new 0 0 24 24" height="24px" id="Layer_1" version="1.1" viewBox="0 0 24 24" width="24px" xml:space="preserve" xmlns="http://www.w3.org/2000/svg" xmlns:xlink="http://www.w3.org/1999/xlink"><g><path d="M6.7,6.2c1.5,0,2.7-1.3,2.7-2.9c0-1.6-1.2-2.9-2.7-2.9S4,1.8,4,3.4C4,4.9,5.2,6.2,6.7,6.2z"/><path d="M17.4,6.2c1.5,0,2.7-1.3,2.7-2.9c0-1.6-1.2-2.9-2.7-2.9c-1.5,0-2.7,1.3-2.7,2.9C14.7,4.9,15.9,6.2,17.4,6.2z"/><path d="M19.8,7.6c-0.2-0.1-0.4,0-0.5,0.1c-2.2,2.5-4.5,3.7-7,3.7c-4.2,0-7.5-3.7-7.5-3.7C4.7,7.6,4.5,7.5,4.3,7.6   C4.1,7.7,4,7.8,4,8c-0.2,6.6,0,14.7,0,14.8c0,0.2,0.1,0.4,0.4,0.5c0.4,0.1,0.9,0.1,1.5,0.1c1.2,0,2.5-0.2,2.6-0.2   c0.2,0,0.4-0.2,0.4-0.5c0.1-3.4,0.1-6.5,0-7.9c1,0.4,2.1,0.6,3.1,0.6c1.4,0,2.4-0.3,3.1-0.6c-0.2,6.5-0.1,7.9-0.1,8   c0,0.2,0.1,0.3,0.3,0.4c0.3,0.2,0.9,0.2,1.7,0.2h0c1.2,0,2.6-0.2,2.7-0.2c0.2,0,0.4-0.2,0.4-0.5c0-5.4,0-14.7,0-14.8   C20.1,7.8,20,7.7,19.8,7.6z"/></g></svg>